<svg width="254" height="62" viewBox="0 0 254 62" fill="none" xmlns="http://www.w3.org/2000/svg">
<g clip-path="url(#clip0_1_131)">
<path d="M0.5 21.9432V15.0909H30.0057V21.9432H19.4205V50H11.1023V21.9432H0.5ZM34.1264 50V23.8182H42.4616V50H34.1264ZM38.3026 20.7671C37.1321 20.7671 36.1264 20.3807 35.2855 19.608C34.4446 18.8239 34.0241 17.8807 34.0241 16.7784C34.0241 15.6875 34.4446 14.7557 35.2855 13.983C36.1264 13.1989 37.1321 12.8068 38.3026 12.8068C39.4844 12.8068 40.4901 13.1989 41.3196 13.983C42.1605 14.7557 42.581 15.6875 42.581 16.7784C42.581 17.8807 42.1605 18.8239 41.3196 19.608C40.4901 20.3807 39.4844 20.7671 38.3026 20.7671ZM52.4545 50.4943C51.2273 50.4943 50.1761 50.0625 49.3011 49.1989C48.4375 48.3352 48.0114 47.2898 48.0227 46.0625C48.0114 44.858 48.4375 43.8295 49.3011 42.9773C50.1761 42.1136 51.2273 41.6818 52.4545 41.6818C53.6136 41.6818 54.6364 42.1136 55.5227 42.9773C56.4205 43.8295 56.875 44.858 56.8864 46.0625C56.875 46.8807 56.6591 47.625 56.2386 48.2955C55.8295 48.9659 55.2898 49.5 54.6193 49.8977C53.9602 50.2955 53.2386 50.4943 52.4545 50.4943Z" fill="white"/>
</g>
<defs>
<clipPath id="clip0_1_131">
<rect width="57" height="39" fill="white" transform="translate(0 12)"/>
</clipPath>
</defs>
</svg>
