<svg width="59" height="47" viewBox="0 0 59 47" fill="none" xmlns="http://www.w3.org/2000/svg">
<g clip-path="url(#clip0_2_139)">
<path d="M0.511841 12.1902V4.0117H30.7145V12.1902H19.8793V45.6774H11.3646V12.1902H0.511841ZM34.9326 45.6774V14.4281H43.4647V45.6774H34.9326ZM39.2074 10.7864C38.0093 10.7864 36.9798 10.3253 36.119 9.403C35.2583 8.46716 34.8279 7.34142 34.8279 6.02581C34.8279 4.72376 35.2583 3.61159 36.119 2.6893C36.9798 1.75345 38.0093 1.28552 39.2074 1.28552C40.4171 1.28552 41.4466 1.75345 42.2957 2.6893C43.1564 3.61159 43.5869 4.72376 43.5869 6.02581C43.5869 7.34142 43.1564 8.46716 42.2957 9.403C41.4466 10.3253 40.4171 10.7864 39.2074 10.7864ZM53.6936 46.2674C52.4374 46.2674 51.3614 45.752 50.4657 44.7212C49.5817 43.6904 49.1456 42.4426 49.1571 40.9778C49.1456 39.5402 49.5817 38.3126 50.4657 37.2955C51.3614 36.2646 52.4374 35.7492 53.6936 35.7492C54.8801 35.7492 55.9271 36.2646 56.8343 37.2955C57.7533 38.3126 58.2185 39.5402 58.2302 40.9778C58.2185 41.9543 57.9975 42.8427 57.5671 43.643C57.1483 44.4431 56.5959 45.0806 55.9095 45.5553C55.2349 46.0301 54.4962 46.2674 53.6936 46.2674Z" fill="#1E1E1E"/>
</g>
<defs>
<clipPath id="clip0_2_139">
<rect width="58.3465" height="46.5484" fill="white" transform="translate(0 0.322571)"/>
</clipPath>
</defs>
</svg>
